<svg width="256" height="64" viewBox="0 0 256 64" fill="none" xmlns="http://www.w3.org/2000/svg">
  <path d="M33.4258 34.264C31.1858 41.304 28.3058 46.808 24.7858 50.776C21.3298 54.744 17.8098 56.728 14.2258 56.728C7.82575 56.728 4.62575 50.968 4.62575 39.448C4.62575 34.648 5.20175 29.944 6.35375 25.336C7.56975 20.728 8.91375 16.76 10.3858 13.432C11.5378 10.744 13.5858 9.4 16.5298 9.4C19.8578 9.4 21.5218 10.872 21.5218 13.816C21.5218 14.136 21.1378 15.384 20.3698 17.56C16.9138 26.904 15.1858 34.072 15.1858 39.064C15.1858 41.432 15.3778 43.384 15.7618 44.92C16.2098 46.392 16.9138 47.128 17.8738 47.128C19.6018 47.128 21.5218 45.176 23.6338 41.272C25.8098 37.304 27.7938 32.6 29.5858 27.16C31.4418 21.656 32.7538 16.856 33.5218 12.76C33.6498 11.928 34.2578 11.192 35.3458 10.552C36.4978 9.912 37.4898 9.592 38.3218 9.592C39.9858 9.592 41.1698 9.976 41.8738 10.744C42.5778 11.448 42.9298 12.6 42.9298 14.2C42.9298 14.52 42.7378 15.512 42.3538 17.176C41.3938 22.296 40.6258 26.648 40.0498 30.232C39.5378 33.752 39.2818 37.048 39.2818 40.12C39.2818 42.168 39.6018 43.864 40.2418 45.208C40.9458 46.488 41.8098 47.128 42.8338 47.128C45.7778 47.128 48.4658 43.48 50.8978 36.184C53.3938 28.888 55.4098 21.016 56.9458 12.568C57.2018 10.904 58.6098 10.072 61.1698 10.072C62.5778 10.072 63.9538 10.328 65.2978 10.84C66.6418 11.288 67.3458 11.8 67.4098 12.376L66.3538 17.272C64.5618 25.656 62.8658 32.408 61.2658 37.528C59.6658 42.648 57.2658 47.128 54.0658 50.968C50.8658 54.808 46.7058 56.728 41.5858 56.728C35.8898 56.728 33.0418 52.184 33.0418 43.096C33.0418 40.28 33.2978 37.336 33.8098 34.264H33.4258ZM105.561 50.008C105.689 51.672 105.913 53.176 106.233 54.52C106.105 54.904 105.529 55.288 104.505 55.672C103.545 56.056 102.713 56.248 102.009 56.248C99.7048 56.248 98.0408 55.896 97.0168 55.192C96.0568 54.552 95.5768 53.56 95.5768 52.216C95.5768 50.936 95.7048 49.656 95.9608 48.376C94.5528 50.296 92.4728 51.896 89.7208 53.176C87.0328 54.392 84.8568 55 83.1928 55C78.9048 55 75.3208 53.752 72.4408 51.256C69.6248 48.76 68.2168 44.76 68.2168 39.256C68.2168 34.072 69.4328 29.208 71.8648 24.664C74.3608 20.056 77.7848 16.376 82.1368 13.624C86.4888 10.808 91.3208 9.4 96.6328 9.4C97.6568 9.4 99.0008 9.688 100.665 10.264C102.329 10.776 103.993 11.704 105.657 13.048C107.385 14.328 108.825 15.992 109.977 18.04C110.489 18.04 111.097 18.296 111.801 18.808C112.505 19.32 112.857 19.832 112.857 20.344C112.857 20.92 112.761 21.496 112.569 22.072L105.561 50.008ZM101.241 23.128C100.857 21.72 100.089 20.536 98.9368 19.576C97.8488 18.616 96.8568 18.136 95.9608 18.136C93.0168 18.136 90.2328 19.192 87.6088 21.304C85.0488 23.352 82.9688 25.912 81.3688 28.984C79.7688 32.056 78.9688 34.968 78.9688 37.72C78.9688 40.408 79.2888 42.616 79.9288 44.344C80.5688 46.072 81.8168 46.936 83.6728 46.936C85.2728 46.936 87.0968 46.456 89.1448 45.496C91.2568 44.536 93.1128 43.256 94.7128 41.656C96.3768 39.992 97.4648 38.264 97.9768 36.472L101.241 23.128ZM128.884 57.016C126.964 56.696 125.588 56.312 124.756 55.864C123.924 55.48 123.348 55 123.028 54.424C122.772 53.848 122.516 52.856 122.26 51.448L122.164 50.776C121.588 47.512 120.98 41.368 120.34 32.344C119.764 23.256 119.476 16.792 119.476 12.952C119.476 11.928 119.988 11.096 121.012 10.456C122.1 9.752 123.476 9.4 125.14 9.4C128.532 9.4 130.228 10.968 130.228 14.104L130.612 27.352C130.996 35.928 131.22 42.52 131.284 47.128C134.74 39.64 138.996 31.48 144.052 22.648C149.172 13.752 152.564 9.304 154.228 9.304C156.532 9.304 158.42 9.624 159.892 10.264C161.428 10.84 162.196 12.12 162.196 14.104C162.196 14.808 161.524 16.216 160.18 18.328L151.732 31.768C147.316 38.872 143.924 44.216 141.556 47.8C139.188 51.32 137.428 53.624 136.276 54.712C135.572 55.352 134.548 55.896 133.204 56.344C131.86 56.792 130.42 57.016 128.884 57.016ZM179.173 57.016C172.901 57.016 168.325 55.768 165.445 53.272C162.565 50.776 161.125 47.448 161.125 43.288C161.125 37.208 162.629 31.576 165.637 26.392C168.709 21.208 172.773 17.112 177.829 14.104C182.949 11.032 188.453 9.496 194.341 9.496C197.925 9.496 200.933 10.52 203.365 12.568C205.797 14.552 207.013 17.496 207.013 21.4C207.013 25.752 205.381 29.208 202.117 31.768C198.917 34.264 194.853 36.12 189.925 37.336C185.061 38.488 179.205 39.384 172.357 40.024C172.101 40.984 171.973 41.976 171.973 43C171.973 44.792 172.709 46.168 174.181 47.128C175.717 48.088 177.861 48.568 180.613 48.568C182.661 48.568 184.997 48.152 187.621 47.32C190.309 46.488 192.357 45.112 193.765 43.192C194.533 42.104 195.493 41.24 196.645 40.6C197.861 39.96 199.013 39.64 200.101 39.64C201.125 39.64 201.957 39.992 202.597 40.696C203.237 41.336 203.557 42.328 203.557 43.672C202.789 45.72 201.285 47.8 199.045 49.912C196.805 51.96 193.957 53.656 190.501 55C187.045 56.344 183.269 57.016 179.173 57.016ZM175.045 31.192C177.285 31.128 180.101 30.776 183.493 30.136C186.885 29.496 189.957 28.376 192.709 26.776C195.461 25.112 196.837 22.936 196.837 20.248C196.837 19.48 196.421 18.872 195.589 18.424C194.757 17.912 193.861 17.656 192.901 17.656C190.981 17.656 188.773 18.392 186.277 19.864C183.845 21.336 181.573 23.128 179.461 25.24C177.349 27.352 175.877 29.336 175.045 31.192ZM228.774 57.016C222.438 57.016 217.798 55.768 214.854 53.272C211.974 50.776 210.534 47.448 210.534 43.288C210.534 37.08 211.814 31.448 214.374 26.392C216.934 21.272 220.486 17.272 225.03 14.392C229.574 11.448 234.758 9.976 240.582 9.976C244.23 9.976 247.27 11 249.702 13.048C252.198 15.096 253.446 18.136 253.446 22.168C253.446 26.456 252.038 29.816 249.222 32.248C246.47 34.68 242.854 36.44 238.374 37.528C233.958 38.552 228.39 39.384 221.67 40.024C221.478 40.856 221.382 41.848 221.382 43C221.382 44.792 222.15 46.168 223.686 47.128C225.222 48.088 227.366 48.568 230.118 48.568C232.102 48.568 234.406 48.152 237.03 47.32C239.718 46.488 241.766 45.112 243.174 43.192C244.006 42.104 244.966 41.24 246.054 40.6C247.206 39.96 248.326 39.64 249.414 39.64C250.438 39.64 251.27 39.992 251.91 40.696C252.614 41.336 252.966 42.328 252.966 43.672C252.262 45.72 250.79 47.8 248.55 49.912C246.31 51.96 243.462 53.656 240.006 55C236.614 56.344 232.87 57.016 228.774 57.016ZM224.166 31.192C228.262 31.128 232.454 30.36 236.742 28.888C241.03 27.352 243.174 24.696 243.174 20.92C243.174 20.024 242.758 19.352 241.926 18.904C241.094 18.392 240.198 18.136 239.238 18.136C237.382 18.136 235.43 18.84 233.382 20.248C231.398 21.592 229.574 23.288 227.91 25.336C226.246 27.32 224.998 29.272 224.166 31.192Z" fill="#000000"/>
</svg>
